<svg width="212" height="105" viewBox="0 0 212 105" fill="none" xmlns="http://www.w3.org/2000/svg">
<g opacity="0.5">
<path fill-rule="evenodd" clip-rule="evenodd" d="M23.9468 27.9582C23.4744 27.6775 22.9548 27.5371 22.2935 27.5371C21.5849 27.5371 21.0181 27.6775 20.593 27.9582C20.1678 28.239 19.9316 28.6133 19.9316 29.0812V59.9168C19.9316 60.2911 20.1678 60.6655 20.593 60.993C21.0653 61.3205 21.5849 61.5077 22.2463 61.5077C22.8378 61.5095 23.4154 61.3297 23.8996 60.993C24.3719 60.6655 24.6081 60.2911 24.6081 59.9168V29.0812C24.6554 28.6133 24.4192 28.239 23.9468 27.9582ZM27.8675 44.1481C27.584 44.4288 27.4423 44.8032 27.5368 45.3646C27.5841 45.9261 27.8202 46.4409 28.2926 46.9088C28.7177 47.3767 29.2373 47.7042 29.8042 47.8446C30.371 47.985 30.7962 47.8914 31.0796 47.6574L33.5832 46.1133V59.9168C33.5832 60.2911 33.8193 60.6655 34.2445 60.993C34.6696 61.3205 35.2365 61.5077 35.8978 61.5077C36.5591 61.5077 37.1259 61.3205 37.5983 60.993C38.0707 60.6655 38.3069 60.2911 38.3069 59.9168V41.2938C38.3069 40.8259 38.0707 40.4983 37.5983 40.2176C37.1259 39.9368 36.5591 39.7965 35.8505 39.7965C35.142 39.7965 34.6224 39.9368 34.1972 40.2176L27.8675 44.1481ZM46.5261 55.0505C46.5261 55.9863 46.8095 56.735 47.3291 57.2029C47.8488 57.6708 48.5573 57.9515 49.4076 57.9515C50.5413 57.9515 51.6277 57.4836 52.6197 56.5478C53.6589 55.612 54.1785 54.5826 54.1785 53.5064V51.8687H53.0448C51.7222 51.8687 50.6357 51.9155 49.7855 52.0558C48.9352 52.1962 48.1794 52.4769 47.5181 52.9917C46.8568 53.4596 46.5261 54.1614 46.5261 55.0505ZM41.8024 55.612C41.8024 53.2256 42.6999 51.5879 44.4949 50.6521C46.2899 49.7163 48.8407 49.2483 52.2418 49.2483H54.1785V48.4061C54.1785 47.0491 53.8006 45.9261 53.0921 44.9435C52.3835 43.9609 51.2498 43.493 49.7855 43.493C48.5101 43.493 47.3764 43.7269 46.4316 44.2417C45.4869 44.7096 44.9201 44.9903 44.8256 44.9903C44.306 44.9903 43.9281 44.7564 43.5974 44.2417C43.2668 43.7737 43.125 43.2122 43.125 42.604C43.125 41.8553 43.8336 41.1534 45.298 40.5919C46.7151 40.0304 48.2739 39.7497 49.8799 39.7497C52.9504 39.7497 55.2177 40.5919 56.6821 42.2296C58.1464 43.8673 58.9022 45.9261 58.9022 48.4061V59.5425C58.9022 59.9636 58.666 60.3379 58.2409 60.6187C57.8158 60.9462 57.2489 61.0866 56.6349 61.0866C56.0208 61.0866 55.5484 60.9462 55.1233 60.6187C54.6981 60.2911 54.5092 59.9636 54.5092 59.5425V57.9983C52.5252 60.2911 50.2578 61.4609 47.8015 61.4609C46.0537 61.4609 44.6366 60.9462 43.5502 59.9636C42.3693 58.981 41.8024 57.5304 41.8024 55.612ZM62.9174 52.6641V48.64C62.9174 46.0197 63.6732 43.8673 65.232 42.2296C66.7908 40.5919 69.0582 39.7965 72.1286 39.7965C74.0653 39.7965 75.6714 40.124 76.994 40.7791C78.3167 41.4342 78.978 42.1828 78.978 43.0251C78.978 43.5398 78.789 44.0545 78.4111 44.5224C78.0332 45.0371 77.6081 45.2711 77.0885 45.2711C76.9468 45.2711 76.4272 45.0371 75.4824 44.616C74.5849 44.1949 73.593 43.9609 72.4593 43.9609C69.1999 43.9609 67.5466 45.505 67.5466 48.64V52.6173C67.5466 55.7523 69.1999 57.2965 72.5065 57.2965C73.6402 57.2965 74.6322 57.0625 75.5769 56.5946C76.4744 56.1267 77.0413 55.8927 77.183 55.8927C77.7971 55.8927 78.2694 56.1267 78.6473 56.5946C79.0252 57.0625 79.2142 57.5772 79.2142 58.0919C79.2142 58.9342 78.5529 59.6828 77.183 60.3847C75.8131 61.0866 74.1598 61.4609 72.1758 61.4609C69.1054 61.4609 66.7908 60.6654 65.232 59.0277C63.7204 57.4836 62.9174 55.3312 62.9174 52.6641ZM82.6625 59.5892V29.0344C82.6625 28.5665 82.8514 28.239 83.2766 27.9582C83.7017 27.6775 84.2213 27.5371 84.9299 27.5371C85.5912 27.5371 86.2053 27.6775 86.6304 27.9582C87.1028 28.239 87.339 28.6133 87.339 29.0344V48.8272L96.6447 40.3112C96.9281 40.0304 97.2587 39.89 97.6366 39.89C98.1562 39.89 98.6286 40.124 99.1482 40.5919C99.6678 41.0598 99.904 41.5745 99.904 42.0892C99.904 42.4636 99.7623 42.7911 99.5261 43.0719L93.7632 48.1721L100.754 58.2323C100.943 58.513 101.038 58.747 101.038 59.0277C101.038 59.5425 100.754 60.104 100.14 60.6187C99.5261 61.1334 98.9593 61.4141 98.3924 61.4141C97.8728 61.4141 97.4949 61.1802 97.1643 60.759L90.5983 51.12L87.339 54.0679V59.636C87.339 60.0104 87.1028 60.3847 86.6304 60.7122C86.158 61.0398 85.5912 61.1802 84.9299 61.1802C84.2685 61.1802 83.7489 61.0398 83.3238 60.7122C82.8987 60.3379 82.6625 59.9636 82.6625 59.5892ZM107.462 48.874H114.878C115.539 48.874 115.965 48.7804 116.201 48.5933C116.437 48.4061 116.531 48.0786 116.531 47.5171C116.531 46.3473 116.106 45.3646 115.256 44.5224C114.406 43.7269 113.319 43.3058 112.044 43.3058C110.816 43.3058 109.729 43.6802 108.832 44.4756C107.934 45.2711 107.509 46.2537 107.509 47.4235V48.874H107.462ZM102.785 52.6641V48.4529C102.785 46.1133 103.683 44.1013 105.525 42.37C107.32 40.6855 109.54 39.7965 112.091 39.7965C114.548 39.7965 116.626 40.5919 118.374 42.0892C120.121 43.6334 120.972 45.5518 120.972 47.9382C120.972 48.8272 120.877 49.5759 120.641 50.1374C120.452 50.6989 120.121 51.0732 119.649 51.3072C119.224 51.5411 118.799 51.6815 118.421 51.7283C118.043 51.7751 117.523 51.8219 116.909 51.8219H107.509V52.8513C107.509 54.3486 108.029 55.5184 109.115 56.4074C110.202 57.2965 111.572 57.7176 113.319 57.7176C114.548 57.7176 115.681 57.4368 116.768 56.8753C117.854 56.3139 118.515 56.0331 118.752 56.0331C119.271 56.0331 119.696 56.2671 120.027 56.735C120.405 57.2029 120.547 57.6708 120.547 58.1387C120.547 58.8874 119.838 59.5893 118.421 60.3847C117.004 61.1334 115.256 61.5077 113.178 61.5077C110.154 61.5077 107.651 60.7122 105.714 59.0746C103.73 57.4368 102.785 55.2844 102.785 52.6641ZM124.703 59.5892V41.5745C124.703 41.1066 124.94 40.7791 125.365 40.4983C125.79 40.2176 126.357 40.0772 127.018 40.0772C127.585 40.0772 128.105 40.2176 128.53 40.4983C128.955 40.7791 129.144 41.1534 129.144 41.6213V43.5866C129.663 42.5572 130.419 41.6681 131.458 40.9195C132.498 40.1708 133.584 39.7965 134.812 39.7965H136.229C136.702 39.7965 137.127 39.9836 137.457 40.4048C137.835 40.8259 137.977 41.2938 137.977 41.8553C137.977 42.4168 137.788 42.9315 137.457 43.3526C137.08 43.7737 136.702 43.9609 136.229 43.9609H134.812C133.395 43.9609 132.12 44.5692 131.033 45.7858C129.947 47.0023 129.427 48.5465 129.427 50.4649V59.5425C129.427 59.9168 129.191 60.2911 128.719 60.6187C128.246 60.9462 127.679 61.0866 127.018 61.0866C126.357 61.0866 125.837 60.9462 125.365 60.6187C124.892 60.3379 124.703 59.9636 124.703 59.5892ZM142.181 52.9917C142.181 54.489 142.701 55.8459 143.787 57.0157C144.874 58.1855 146.196 58.747 147.708 58.747C149.267 58.747 150.589 58.1855 151.676 57.0157C152.762 55.8459 153.329 54.5358 153.329 52.9917V48.1721C153.329 46.7216 152.762 45.4114 151.676 44.2884C150.542 43.1187 149.267 42.5572 147.755 42.5572C146.244 42.5572 144.921 43.1187 143.835 44.2884C142.748 45.4582 142.228 46.7216 142.228 48.1721V52.9917H142.181ZM139.3 52.9917V48.1721C139.3 45.9261 140.15 43.9609 141.803 42.3232C143.457 40.6855 145.441 39.8433 147.755 39.8433C150.023 39.8433 152.054 40.6387 153.707 42.2764C155.408 43.9141 156.258 45.8794 156.258 48.1253V52.9449C156.258 55.1441 155.408 57.1093 153.707 58.8406C152.007 60.5251 150.023 61.4141 147.755 61.4141C145.535 61.4141 143.551 60.5719 141.851 58.8406C140.15 57.2029 139.3 55.2376 139.3 52.9917ZM159.753 59.9636V41.2002C159.753 40.8727 159.895 40.6387 160.131 40.4048C160.415 40.2176 160.745 40.124 161.171 40.124C161.548 40.124 161.832 40.2176 162.115 40.4515C162.399 40.6855 162.493 40.9195 162.493 41.2002V43.259C163.013 42.2764 163.769 41.481 164.808 40.8259C165.847 40.1708 167.075 39.8433 168.445 39.8433C170.571 39.8433 172.46 40.6387 174.019 42.2764C175.578 43.9141 176.381 45.8794 176.381 48.1253V59.9636C176.381 60.3379 176.239 60.6187 175.956 60.8058C175.672 60.993 175.294 61.1334 174.917 61.1334C174.539 61.1334 174.255 61.0398 173.925 60.8058C173.641 60.6187 173.499 60.3379 173.499 59.9636V48.1721C173.499 46.7216 172.933 45.4114 171.846 44.2884C170.76 43.1187 169.437 42.5572 167.925 42.5572C166.508 42.5572 165.28 43.0719 164.241 44.1013C163.154 45.1307 162.635 46.4876 162.635 48.1721V59.9636C162.635 60.2443 162.493 60.5251 162.162 60.759C161.879 60.993 161.548 61.1334 161.123 61.1334C160.698 61.1334 160.367 60.993 160.084 60.759C159.895 60.5719 159.753 60.2911 159.753 59.9636ZM182.663 49.3419H191.591C192.489 49.3419 193.056 49.2483 193.386 49.0612C193.67 48.874 193.811 48.4529 193.811 47.8446C193.811 46.3941 193.292 45.0839 192.205 43.9609C191.166 42.8379 189.843 42.2764 188.237 42.2764C186.679 42.2764 185.356 42.7911 184.269 43.8673C183.183 44.9435 182.663 46.2069 182.663 47.6574V49.3419ZM179.782 52.9917V48.0318C179.782 45.7858 180.632 43.8673 182.285 42.2764C183.939 40.6855 185.97 39.8433 188.285 39.8433C190.552 39.8433 192.489 40.6387 194.142 42.136C195.795 43.6802 196.598 45.5986 196.598 47.9382C196.598 48.7804 196.504 49.4355 196.315 49.9502C196.126 50.4649 195.795 50.7925 195.37 51.0264C194.945 51.2136 194.567 51.354 194.189 51.4475C193.811 51.4943 193.339 51.5411 192.725 51.5411H182.663V53.1788C182.663 54.9101 183.277 56.3139 184.553 57.3901C185.828 58.4195 187.434 58.981 189.418 58.981C190.41 58.981 191.308 58.8406 192.064 58.513C192.679 58.2851 193.266 57.9867 193.811 57.624C194.236 57.3433 194.52 57.1561 194.756 57.1561C195.087 57.1561 195.37 57.2965 195.606 57.624C195.843 57.9515 195.984 58.2323 195.984 58.513C195.984 59.1213 195.323 59.7764 194.048 60.4315C192.772 61.0866 191.166 61.4141 189.277 61.4141C186.442 61.4141 184.175 60.6187 182.38 59.0746C180.679 57.5772 179.782 55.5184 179.782 52.9917Z" fill="white"/>
</g>
</svg>
