<svg width="190" height="119" viewBox="0 0 190 119" fill="none" xmlns="http://www.w3.org/2000/svg">
<g opacity="0.5">
<path d="M56.561 61.907H59.2378C59.2587 62.4304 59.4674 62.827 59.8238 63.0776C60.2205 63.3281 60.7439 63.4742 61.3717 63.4742C61.8534 63.4742 62.2292 63.3907 62.605 63.2028C62.9181 63.0149 63.0866 62.7853 63.0866 62.4498C63.0866 61.9681 62.5214 61.6132 61.4552 61.3835C60.9736 61.3 60.6186 61.2165 60.389 61.1539C59.0081 60.8199 58.088 60.4008 57.6079 59.9207C57.0845 59.439 56.8339 58.8336 56.8339 58.0387C56.8339 57.0351 57.2306 56.2403 57.9837 55.5708C58.7576 54.9638 59.7821 54.6716 61.0362 54.6716C62.3962 54.6716 63.4833 54.9847 64.299 55.5708C65.052 56.2194 65.4696 57.0769 65.5322 58.1014H63.8591C63.3565 58.1014 63.0016 57.8717 62.7093 57.4318C62.605 57.3274 62.4797 57.2439 62.3962 57.1186C62.083 56.889 61.6431 56.7637 61.1212 56.7637C60.5993 56.7637 60.2011 56.8472 59.9506 56.9934C59.7209 57.1604 59.5957 57.39 59.5957 57.6838C59.5957 58.1014 60.2652 58.4578 61.6237 58.75C61.7907 58.8127 61.9369 58.8335 62.0413 58.8544C62.1457 58.8753 62.2709 58.8753 62.3753 58.8753C63.7144 59.2093 64.6345 59.6075 65.1564 60.0459C65.659 60.5276 65.9095 61.133 65.9095 61.9278C65.9095 63.0776 65.492 63.9559 64.6554 64.6046C63.8814 65.1906 62.7108 65.462 61.1212 65.462C59.6568 65.462 58.528 65.1489 57.7749 64.5628C57.0218 63.9559 56.6252 63.0984 56.6252 61.9487V61.8861H56.561V61.907ZM72.8303 57.8702C72.4336 57.305 71.9102 57.0336 71.2197 57.0336C70.4875 57.0336 69.9447 57.2842 69.5466 57.8076C69.1484 58.331 68.9605 59.0617 68.9605 59.94V65.3353H66.2853V51.8681H67.6244C67.9793 51.8681 68.294 52.0142 68.5654 52.2647C68.8159 52.5152 68.962 52.8508 68.962 53.2057V56.3C69.4437 55.526 70.1118 55.025 70.9692 54.8356C71.8267 54.6462 72.6424 54.6686 73.4372 55.0026C74.1694 55.3158 74.7763 55.8183 75.2774 56.467C75.7799 57.1365 76.0304 58.0775 76.0304 59.269V65.3338H73.4163V59.9594C73.4163 59.5628 73.3954 59.2064 73.3119 58.8723C73.2075 58.5815 73.0614 58.2475 72.8303 57.8702ZM76.5747 54.9638H77.9973C78.3523 54.9638 78.6669 55.11 78.9383 55.3605C79.1888 55.611 79.335 55.9465 79.335 56.3015V65.3562H76.6165V54.9623L76.5747 54.9638ZM82.5963 67.8032C82.5963 68.1582 82.4501 68.4728 82.1996 68.7442C81.9491 68.9947 81.6136 69.1409 81.2586 69.1409H79.9195V59.4166C79.9195 57.5764 80.4429 56.3641 81.53 55.6945C82.5963 55.025 83.746 54.6909 85.0016 54.6909C85.6503 54.6909 86.2975 54.7953 86.967 55.0458C87.6366 55.2964 88.1585 55.6528 88.5567 56.1329C89.3306 57.1574 89.7273 58.4339 89.7273 60.0429C89.7273 61.6743 89.3306 63.012 88.5567 64.0155C87.7827 65.0191 86.7791 65.4799 85.5459 65.4799C84.8972 65.4799 84.3127 65.3755 83.831 65.125C83.3076 64.8745 82.89 64.4555 82.5769 63.8918V67.8018H82.5963V67.8032ZM87.0714 60.1294C87.0714 59.105 86.8835 58.331 86.4854 57.7867C86.0887 57.2215 85.5444 56.9501 84.8122 56.9501C84.1218 56.9501 83.5581 57.2215 83.1808 57.7867C82.8259 58.2893 82.6157 59.0617 82.6157 60.1294C82.6157 61.133 82.8035 61.8443 83.2017 62.3454C83.5984 62.9106 84.1427 63.182 84.8749 63.182C85.5444 63.182 86.1081 62.9106 86.4854 62.3454C86.8626 61.8235 87.0714 61.0704 87.0714 60.1294ZM92.8857 67.8032C92.8857 68.1582 92.7396 68.4728 92.489 68.7442C92.2385 68.9947 91.903 69.1409 91.5481 69.1409H90.209V59.4166C90.209 57.5764 90.7324 56.3641 91.8195 55.6945C92.8857 55.025 94.0354 54.6909 95.291 54.6909C95.9397 54.6909 96.5869 54.7953 97.2565 55.0458C97.926 55.2964 98.4479 55.6528 98.8461 56.1329C99.62 57.1574 100.017 58.4339 100.017 60.0429C100.017 61.6743 99.62 63.012 98.8461 64.0155C98.0722 65.0191 97.0686 65.4799 95.8353 65.4799C95.1866 65.4799 94.6021 65.3755 94.1204 65.125C93.597 64.8745 93.1795 64.4555 92.8663 63.8918V67.8018H92.8857V67.8032ZM97.3191 60.1294C97.3191 59.105 97.1312 58.331 96.733 57.7867C96.3364 57.2215 95.7921 56.9501 95.0599 56.9501C94.3695 56.9501 93.8058 57.2215 93.4285 57.7867C93.0736 58.2893 92.8633 59.0617 92.8633 60.1294C92.8633 61.133 93.0512 61.8443 93.4494 62.3454C93.846 62.9106 94.3903 63.182 95.1225 63.182C95.7921 63.182 96.3558 62.9106 96.733 62.3454C97.1312 61.8235 97.3191 61.0704 97.3191 60.1294ZM107.106 64.8551C106.541 65.1265 105.956 65.3368 105.349 65.3785C104.742 65.4412 104.2 65.4829 103.739 65.4829C102.798 65.4829 101.982 65.2324 101.271 64.7298C100.58 64.2273 100.205 63.3698 100.205 62.1992C100.205 61.1121 100.518 60.3173 101.146 59.8565C101.794 59.3749 102.589 59.0826 103.593 58.9156C103.739 58.9156 103.864 58.8947 104.074 58.8529C104.262 58.8321 104.471 58.7694 104.723 58.7486C105.873 58.5815 106.438 58.246 106.438 57.7241C106.438 57.3274 106.25 57.0754 105.831 56.971C105.413 56.8666 105.057 56.804 104.723 56.804C104.368 56.804 104.033 56.8666 103.74 56.971C103.469 57.0754 103.238 57.2842 103.092 57.5571H100.478C100.582 56.7414 100.959 56.0927 101.565 55.5499C102.255 54.943 103.259 54.6507 104.575 54.6507C106.019 54.6507 107.127 54.9012 107.859 55.4037C108.612 55.9272 109.009 56.6579 109.009 57.5988V61.1539C109.009 62.2201 108.821 63.0149 108.444 63.601C108.089 64.1647 107.65 64.5837 107.106 64.8551ZM106.499 60.0459C106.144 60.2338 105.642 60.4008 104.972 60.5485L104.073 60.7363C103.591 60.8825 103.257 61.0495 103.048 61.2389C102.86 61.5103 102.777 61.8249 102.777 62.0963C102.777 62.493 102.881 62.7868 103.132 63.0373C103.362 63.267 103.718 63.3505 104.156 63.3505C104.889 63.3505 105.452 63.1626 105.871 62.7018C106.289 62.2842 106.52 61.6982 106.52 60.9869V60.0459H106.499ZM112.334 52.9566V56.0942C112.606 55.5916 113.025 55.195 113.588 54.8609C114.07 54.6104 114.613 54.4643 115.303 54.4643C116.536 54.4643 117.519 54.9668 118.314 55.9913C119.088 57.0158 119.485 58.334 119.485 59.943C119.485 61.552 119.088 62.8703 118.314 63.8948C117.917 64.3973 117.394 64.7522 116.724 64.9819C116.055 65.2115 115.385 65.3159 114.759 65.3159C113.505 65.3159 112.333 64.9819 111.287 64.3332C110.221 63.6845 109.677 62.4513 109.677 60.5693V51.5981H111.016C111.371 51.5981 111.686 51.7443 111.957 51.9948C112.209 52.2662 112.334 52.6002 112.334 52.9566ZM116.788 59.8148C116.788 58.8738 116.601 58.1416 116.202 57.6197C115.806 57.0545 115.282 56.7831 114.592 56.7831C113.86 56.7831 113.317 57.0336 112.919 57.5571C112.522 58.1222 112.333 58.8321 112.333 59.773C112.333 60.8601 112.521 61.6549 112.898 62.1575C113.295 62.7227 113.839 62.9941 114.529 62.9941C115.261 62.9941 115.804 62.7227 116.202 62.1575C116.601 61.6549 116.788 60.8825 116.788 59.8148ZM119.966 51.8889H121.389C121.744 51.8889 122.058 51.9933 122.33 52.2438C122.58 52.4944 122.727 52.809 122.727 53.1639V65.3353H120.008V51.8681H119.966V51.8889ZM130.779 62.1366H132.724C132.452 63.2237 131.887 64.0603 131.092 64.6463C130.277 65.2533 129.252 65.5455 128.04 65.5455C126.575 65.5455 125.405 65.0639 124.568 64.102C123.732 63.1611 123.314 61.822 123.314 60.0653C123.314 58.3921 123.732 57.0963 124.547 56.1553C125.384 55.1726 126.554 54.7118 128.019 54.7118C129.567 54.7118 130.8 55.1935 131.657 56.1344C132.494 57.1172 132.912 58.4354 132.912 60.1712V60.4426V60.6096C132.912 60.7557 132.912 60.8392 132.891 60.881H126.135C126.156 61.6967 126.365 62.3036 126.722 62.6794C127.056 63.097 127.558 63.3281 128.249 63.3281C128.687 63.3281 129.085 63.2446 129.398 63.0567C129.482 63.0358 129.544 62.9732 129.628 62.9105C129.691 62.8479 129.774 62.7644 129.858 62.6809C129.878 62.5974 129.962 62.493 130.171 62.3677C130.214 62.1784 130.464 62.1366 130.779 62.1366ZM126.073 59.0841H130.045C129.983 58.3936 129.816 57.8508 129.48 57.5362C129.146 57.1813 128.644 56.971 128.037 56.971C127.451 56.971 126.971 57.1589 126.614 57.5362C126.304 57.8702 126.115 58.4145 126.073 59.0841Z" fill="white"/>
<path d="M76.5747 51.8892H77.9973C78.3522 51.8892 78.6669 52.0353 78.9383 52.2858C79.1888 52.5364 79.335 52.8719 79.335 53.2268V54.0634H76.6165V51.8892H76.5747Z" fill="white"/>
</g>
</svg>
