<svg width="179" height="119" viewBox="0 0 179 119" fill="none" xmlns="http://www.w3.org/2000/svg">
<g opacity="0.5">
<path d="M63.1818 72.9017V62.5772C63.1818 61.3004 62.8191 60.2732 62.0937 59.4956C61.7253 59.1071 61.2777 58.802 60.7809 58.6008C60.2842 58.3996 59.75 58.307 59.2143 58.3292C58.6691 58.3057 58.125 58.3975 57.6179 58.5985C57.1108 58.7995 56.652 59.1053 56.2717 59.4956C55.534 60.2732 55.1651 61.3004 55.1651 62.5772V72.9016L47.9414 72.9594V43.7593H55.1651V53.9288C56.8354 52.4296 58.9509 51.68 61.5115 51.68C64.1828 51.68 66.3327 52.5267 67.9607 54.2204C69.5888 55.914 70.4028 58.0227 70.4028 60.5465V72.9122L63.1818 72.9017ZM79.5892 49.0398C79.0108 49.6154 78.2743 50.0073 77.4728 50.1659C76.6713 50.3246 75.8406 50.2429 75.0855 49.9312C74.3305 49.6195 73.685 49.0918 73.2304 48.4146C72.7759 47.7375 72.5326 46.9412 72.5314 46.1263C72.5228 45.5838 72.6258 45.0454 72.8343 44.5442C73.0428 44.0431 73.3522 43.5899 73.7433 43.2129C74.127 42.8298 74.5826 42.5258 75.0842 42.3185C75.5857 42.1111 76.1233 42.0044 76.6663 42.0044C77.2092 42.0044 77.7468 42.1111 78.2483 42.3185C78.7499 42.5258 79.2055 42.8298 79.5892 43.2129C79.9796 43.5904 80.2884 44.0436 80.4963 44.5447C80.7043 45.0458 80.8071 45.5841 80.7984 46.1263C80.8071 46.6686 80.7043 47.2068 80.4963 47.7079C80.2883 48.209 79.9796 48.6623 79.5892 49.0398ZM80.2557 72.9016H73.032V52.2947H80.2557V72.9016ZM33.7286 43.134C35.8027 43.0993 37.8666 43.4311 39.8247 44.114C41.6056 44.7655 42.9835 45.5351 43.9582 46.4231C44.593 46.9932 45.5389 47.9233 45.5389 47.9233L40.5808 52.9751C40.5808 52.9751 39.5876 52.2684 39.1161 51.9242C37.1947 50.5075 35.3848 49.7998 33.6864 49.8016C32.8206 49.77 31.9613 49.9618 31.1917 50.3585C30.5225 50.7315 30.1879 51.2377 30.1879 51.877C30.1879 52.8754 30.9396 53.5557 32.4429 53.9183L37.7778 55.1241C43.3452 56.3746 46.129 59.3038 46.129 63.9117C46.129 66.4652 45.0752 68.7061 42.9676 70.6344C40.8601 72.5627 37.8673 73.526 33.9894 73.5243C31.3743 73.5243 29.0779 73.1495 27.1004 72.3999C25.1227 71.6503 23.5333 70.6931 22.332 69.5284L20.6538 67.8523L26.3627 62.8609C26.3627 62.8609 27.4506 63.7856 27.8854 64.2322C28.7033 65.0577 29.6789 65.7113 30.7545 66.1544C31.83 66.5976 32.9837 66.8212 34.1474 66.8121C35.3137 66.8121 36.2251 66.5905 36.8821 66.1474C37.5389 65.7043 37.8656 65.1789 37.862 64.571C37.8739 64.2389 37.797 63.9096 37.6391 63.617C37.4813 63.3243 37.2482 63.0788 36.9638 62.9056C36.3666 62.5254 35.4138 62.1935 34.1053 61.9099L29.5136 60.9117C27.2848 60.4423 25.482 59.4791 24.105 58.0219C22.7281 56.5647 22.0396 54.7257 22.0396 52.505C22.0396 49.7763 23.139 47.5363 25.338 45.7849C27.5368 44.0334 30.3336 43.1498 33.7286 43.134ZM122.789 70.0014L119.828 65.3199C119.44 65.6214 119.035 65.9011 118.616 66.1579C118.127 66.5058 117.548 66.708 116.948 66.741C115.861 66.741 115.318 66.1027 115.318 64.826V64.403H115.336V58.2477H121.922V52.2948H115.336V46.2524H108.097V66.6097C108.097 68.8866 108.82 70.5933 110.267 71.73C111.715 72.8666 113.482 73.4358 115.571 73.4378C116.858 73.4458 118.137 73.2269 119.348 72.7913C120.431 72.4319 121.401 71.7982 122.165 70.9523C122.426 70.6738 122.638 70.352 122.789 70.0014ZM102.925 54.6459C102.01 53.6907 100.908 52.9336 99.687 52.4215C98.466 51.9094 97.1524 51.6535 95.8279 51.6695C93.457 51.6695 91.6066 52.3778 90.2771 53.7948V52.2947H83.0903V82.1438H90.2719V62.6192C90.2623 62.0644 90.3643 61.5132 90.572 60.9983C90.7797 60.4835 91.0889 60.0154 91.4811 59.6217C91.866 59.2259 92.3266 58.9113 92.8357 58.6964C93.3448 58.4815 93.8921 58.3707 94.4449 58.3707C94.9977 58.3707 95.545 58.4815 96.0541 58.6964C96.5632 58.9113 97.0238 59.2259 97.4087 59.6217C99.0246 61.2952 99.0246 63.9433 97.4087 65.6167C97.03 66.0204 96.5705 66.3401 96.0599 66.5551C95.5493 66.77 94.999 66.8755 94.4449 66.8646C93.9429 66.867 93.4413 66.8372 92.9432 66.7753V73.2169C93.845 73.4355 94.7709 73.5396 95.699 73.5268C97.0462 73.5452 98.3826 73.2837 99.623 72.759C100.863 72.2344 101.981 71.4581 102.904 70.4795C104.896 68.4531 105.891 65.8023 105.889 62.5272C105.887 59.2521 104.899 56.625 102.925 54.6459Z" fill="white"/>
<path d="M143.836 74.6144C139.878 74.619 135.954 73.8803 132.271 72.4366C130.38 71.6817 129.195 69.7942 129.341 67.7682L130.376 50.9259L135.516 51.2385L134.499 67.7893C140.519 70.0547 147.162 70.0426 153.173 67.7551C153.046 65.8978 152.382 56.1407 151.976 50.4452C146.837 53.0303 142.492 53.2326 139.297 50.9916C138.305 50.292 137.499 49.3622 136.948 48.2825C136.397 47.2028 136.119 46.0056 136.135 44.7943C136.125 43.5268 136.419 42.2753 136.994 41.1447C137.569 40.0142 138.407 39.0378 139.439 38.2975C140.349 37.637 141.395 37.188 142.502 36.9834C143.608 36.7788 144.746 36.8239 145.833 37.1152C148.27 37.7694 150.404 39.6373 151.544 42.1068L146.866 44.2505C146.365 43.1654 145.456 42.33 144.495 42.07C144.137 41.9733 143.762 41.9615 143.399 42.0354C143.037 42.1093 142.696 42.267 142.405 42.4957C142.049 42.7617 141.761 43.1083 141.565 43.507C141.369 43.9057 141.27 44.345 141.278 44.789C141.265 45.1765 141.347 45.5613 141.517 45.9101C141.687 46.2588 141.939 46.5611 142.253 46.7908C144.21 48.1649 148.162 47.1193 152.822 43.9956C153.22 43.7287 153.685 43.578 154.165 43.5604C154.644 43.5427 155.119 43.6589 155.536 43.8959C156.732 44.5787 156.8 45.5456 156.892 46.8854L158.331 67.7025C158.499 69.7497 157.299 71.6643 155.38 72.4102C151.707 73.8666 147.789 74.6145 143.836 74.6144Z" fill="white"/>
</g>
</svg>
