<svg width="238" height="119" viewBox="0 0 238 119" fill="none" xmlns="http://www.w3.org/2000/svg">
<g opacity="0.5">
<path d="M143.197 70.6075H140.023C139.032 70.6075 138.437 70.0126 138.437 69.0209V50.1792C138.437 49.1875 139.032 48.5926 140.023 48.5926H143.197C144.188 48.5926 144.783 49.1875 144.783 50.1792V69.0209C144.783 69.8142 144.188 70.6075 143.197 70.6075ZM143.197 47.0059H140.023C139.032 47.0059 138.437 46.4109 138.437 45.4192V42.2459C138.437 41.2542 139.032 40.6592 140.023 40.6592H143.197C144.188 40.6592 144.783 41.2542 144.783 42.2459V45.4192C144.783 46.4109 144.188 47.0059 143.197 47.0059ZM127.528 48.5926C124.157 48.5926 122.768 51.1709 122.768 51.1709V42.4442C122.768 41.4526 122.173 40.8576 121.182 40.8576H118.008C117.017 40.8576 116.422 41.4526 116.422 42.4442V69.0209C116.422 70.0126 117.017 70.6075 118.008 70.6075H121.182C122.173 70.6075 122.768 70.0126 122.768 69.0209V56.5259C122.768 54.7409 124.157 53.3526 125.942 53.3526C127.727 53.3526 129.115 54.7409 129.115 56.5259V69.0209C129.115 70.0126 129.71 70.6075 130.702 70.6075H133.875C134.867 70.6075 135.462 70.0126 135.462 69.0209V58.1126C135.462 52.7575 134.272 48.5926 127.528 48.5926ZM104.125 70.4092C97.7783 70.4092 95.0016 66.8392 94.8033 64.4592C94.8033 64.0626 94.8033 63.6659 95.1999 63.2692C95.5966 62.8726 95.9933 62.8726 96.3899 62.8726H99.7616C100.357 62.8726 100.952 63.2692 100.952 63.8642C101.348 64.8559 102.142 66.0459 104.125 66.0459C104.918 66.0459 107.497 66.0459 107.497 64.2609C107.497 62.4759 104.918 61.8809 102.737 61.4842C102.142 61.2859 101.547 61.0875 100.952 61.0875L100.357 60.8892C97.5799 59.8976 94.8033 59.1042 94.8033 54.9392C94.8033 50.9726 98.1749 48.7909 104.125 48.7909C111.265 48.7909 112.852 52.3609 113.248 54.5426C113.248 54.9392 113.248 55.5342 112.852 55.7326C112.455 56.1292 112.257 56.1292 111.662 56.1292H108.29C107.695 56.1292 107.1 55.7325 107.1 55.1376C106.703 54.1459 105.91 52.9559 103.927 52.9559C101.348 52.9559 100.555 53.9476 100.555 54.7409C100.555 56.1292 102.34 56.5259 104.72 56.9226C108.488 57.7159 113.248 58.7076 113.248 64.0625C113.447 66.6409 111.463 70.4092 104.125 70.4092ZM205.87 48.7909C199.127 48.7909 195.16 52.9559 195.16 59.5009C195.16 66.0459 199.325 70.2109 205.87 70.2109C212.613 70.2109 216.58 66.0459 216.58 59.5009C216.58 52.9559 212.613 48.7909 205.87 48.7909ZM205.87 65.8476C202.697 65.8476 201.11 63.0709 201.11 59.5009C201.11 56.1292 202.697 53.1542 205.87 53.1542C209.043 53.1542 210.63 55.9309 210.63 59.5009C210.432 63.0709 209.043 65.8476 205.87 65.8476ZM183.855 48.5926C179.293 48.5926 177.707 51.7659 177.508 51.7659V50.1792C177.508 49.1875 176.913 48.5926 175.922 48.5926H172.748C171.757 48.5926 171.162 49.1875 171.162 50.1792V76.7559C171.162 77.7476 171.757 78.3426 172.748 78.3426H175.922C176.913 78.3426 177.508 77.7476 177.508 76.7559V67.4342C177.508 67.4342 179.293 70.6075 183.855 70.6075C189.408 70.6075 193.177 66.4426 193.177 59.6992C193.375 53.1542 189.408 48.5926 183.855 48.5926ZM182.268 65.8476C179.095 65.8476 177.508 63.0709 177.508 59.5009C177.508 56.1292 179.095 53.1542 182.268 53.1542C185.442 53.1542 187.028 55.9309 187.028 59.5009C187.028 63.0709 185.442 65.8476 182.268 65.8476ZM160.452 48.5926C155.89 48.5926 154.303 51.7659 154.105 51.7659V50.1792C154.105 49.1875 153.51 48.5926 152.518 48.5926H149.345C148.353 48.5926 147.758 49.1875 147.758 50.1792V76.7559C147.758 77.7476 148.353 78.3426 149.345 78.3426H152.717C153.708 78.3426 154.303 77.7476 154.303 76.7559V67.4342C154.303 67.4342 156.088 70.6075 160.65 70.6075C166.203 70.6075 169.972 66.4426 169.972 59.6992C169.773 53.1542 166.005 48.5926 160.452 48.5926ZM158.865 65.8476C155.692 65.8476 154.105 63.0709 154.105 59.5009C154.105 56.1292 155.692 53.1542 158.865 53.1542C162.038 53.1542 163.625 55.9309 163.625 59.5009C163.625 63.0709 162.038 65.8476 158.865 65.8476ZM85.2833 53.3526C85.2833 46.4109 79.7299 40.8576 72.7883 40.8576C66.8383 40.8576 65.0533 43.2376 58.7066 44.0309C54.9383 44.4276 55.1366 42.4442 50.9716 42.4442C47.7983 42.4442 44.6249 44.0309 44.6249 44.0309C44.6249 44.0309 41.6499 40.4609 39.8649 40.8576C37.4849 41.6509 39.8649 48.5926 39.8649 48.5926C39.8649 48.5926 38.2783 51.7659 35.1049 54.9392C32.7249 57.3192 27.3699 58.5092 24.3949 59.3026C24.5933 44.8242 36.2949 33.1226 50.7733 33.1226C57.1199 33.1226 62.8716 35.3042 67.4333 39.0726C68.6233 38.6759 70.0116 38.6759 71.3999 38.4776C66.0449 33.3209 58.9049 29.9492 50.7733 29.9492C34.7083 29.9492 21.4199 43.2376 21.4199 59.5009C21.4199 75.7642 34.7083 88.8542 50.9716 88.8542C65.2516 88.8542 77.1516 78.9376 79.7299 65.4509C78.5399 66.0459 77.1516 66.6409 75.9616 67.2359C72.5899 77.5492 63.2683 85.2842 51.9633 85.6809C53.5499 83.1026 57.1199 77.9459 61.8799 73.3842C72.1933 63.6659 85.2833 65.2526 85.2833 53.3526ZM53.3516 51.7659C52.1616 51.7659 50.9716 50.5759 50.9716 49.3859C50.9716 48.1959 52.1616 47.0059 53.3516 47.0059C54.5416 47.0059 55.7316 48.1959 55.7316 49.3859C55.7316 50.5759 54.5416 51.7659 53.3516 51.7659Z" fill="white"/>
</g>
</svg>
