<svg width="140" height="53" viewBox="0 0 140 53" fill="none" xmlns="http://www.w3.org/2000/svg">
<g opacity="0.5" clip-path="url(#clip0_482_2503)">
<path d="M8.323 4.88744V9.5514H4.82012V16.3188C4.82012 17.671 5.49851 18.3497 6.47911 18.3497H8.323V23.1626H5.80072C1.35805 23.1626 0 20.5295 0 16.4678V-0.00062561H4.82012V4.88744H8.323Z" fill="white"/>
<path d="M10.7695 23.1626V4.88743H15.3257V8.34944H15.4022C16.2298 5.97862 18.001 4.66334 20.0336 4.66334H21.0486V9.77677H19.8819C17.4731 9.77677 15.8919 11.432 15.8919 14.2128V23.1626H10.7695Z" fill="white"/>
<path d="M40.7812 21.4346V12.6338C40.7812 7.89601 37.2413 4.43782 31.7441 4.43782C26.697 4.43782 22.7822 8.34802 22.7822 14.2139C22.7822 18.9887 25.8694 23.314 31.5184 23.314C32.4964 23.314 33.4758 23.1255 34.5698 22.8607V17.8606C33.6645 18.2005 32.8739 18.4259 31.818 18.4259C29.3723 18.4259 27.6023 16.4689 27.6023 14.0268C27.6023 11.3555 29.3723 9.25076 31.6676 9.25076C34.3059 9.25076 35.9623 10.6781 35.9623 12.8605V21.4117V21.4435V21.4346H40.7812Z" fill="white"/>
<path d="M44.3594 23.1626V10.528C44.3594 6.54268 47.4465 4.4367 51.9275 4.4367C56.4071 4.4367 59.4969 6.54268 59.4969 10.528V23.1626H54.6767V12.182C54.6767 10.3039 53.6974 9.24964 51.9275 9.24964C50.1563 9.24964 49.1782 10.3039 49.1782 12.182V23.1626L44.3594 23.1626Z" fill="white"/>
<path d="M62.208 18.6501H68.4219C69.3247 18.6501 69.7761 18.1994 69.7761 17.6341C69.7761 15.3409 62.3955 14.8151 62.3955 10.2657C62.3955 6.31858 65.1842 4.88743 68.3479 4.88743H74.1461V9.40116H68.5711C67.9705 9.40116 67.3673 9.47628 67.3673 10.2262C67.3673 11.8815 75.1242 12.7829 75.1242 17.5984C75.1242 21.2451 72.4119 23.1626 68.9485 23.1626H62.208V18.6501Z" fill="white"/>
<path d="M96.3147 14.0634C96.3147 8.72336 92.6256 4.43755 87.3515 4.43755C82.0048 4.43755 78.3145 8.72336 78.3145 14.0634V27.0991C81.065 28.5188 83.0007 31.2741 83.1346 34.2969V14.0265C83.1346 11.3565 84.9045 9.47586 87.4281 9.47586C89.7259 9.47586 91.4946 11.3565 91.4946 14.0265C91.4946 16.6953 89.7259 18.5746 87.2763 18.5746C86.223 18.5746 85.4311 18.3505 84.6788 18.0118V23.0871C85.6211 23.3506 86.6005 23.6142 87.5785 23.6142C92.7353 23.6142 96.3147 18.9884 96.3147 14.0634Z" fill="white"/>
<path d="M120.004 23.1626V4.88743H124.56V8.34944H124.638C125.464 5.97862 127.235 4.66334 129.268 4.66334H130.284V9.77677H129.119C126.709 9.77677 125.128 11.432 125.128 14.2128V23.1626H120.004Z" fill="white"/>
<path d="M140.155 4.88744V9.5514H136.653V16.3188C136.653 17.671 137.332 18.3497 138.308 18.3497H140.155V23.1626H137.634C133.19 23.1626 131.833 20.5295 131.833 16.4678V-0.00062561H136.653V4.88744H140.155Z" fill="white"/>
<path d="M117.066 14.0243C117.066 8.79885 113.49 4.43792 107.803 4.43792C102.118 4.43792 98.5391 8.79885 98.5391 14.0243C98.5391 19.2498 102.118 23.6133 107.803 23.6133C108.303 23.6133 108.779 23.5687 109.244 23.5038V21.324H114.013C115.963 19.5528 117.066 16.9235 117.066 14.0243ZM112.247 14.0243C112.247 17.07 110.477 18.8003 107.803 18.8003C105.129 18.8003 103.36 17.07 103.36 14.0243C103.36 10.9787 105.129 9.25086 107.803 9.25086C110.477 9.25086 112.247 10.9787 112.247 14.0243Z" fill="white"/>
<path d="M63.7258 35.6816C63.7258 40.907 60.1502 45.2705 54.4643 45.2705C48.7783 45.2705 45.2002 40.907 45.2002 35.6816C45.2002 30.4548 48.7783 26.0951 54.4643 26.0951C60.1502 26.0951 63.7258 30.4548 63.7258 35.6816ZM50.0203 35.6816C50.0203 38.7285 51.789 40.4576 54.4643 40.4576C57.137 40.4576 58.9082 38.7285 58.9082 35.6816C58.9082 32.6372 57.137 30.9081 54.4643 30.9081C51.789 30.9081 50.0203 32.6372 50.0203 35.6816Z" fill="white"/>
<path d="M86.1689 44.8174H90.9903V26.5425H86.1689V44.8174Z" fill="white"/>
<path d="M93.623 40.3067H99.8369C100.741 40.3067 101.194 39.8547 101.194 39.2894C101.194 36.9975 93.8105 36.4716 93.8105 31.921C93.8105 27.9739 96.5993 26.544 99.7617 26.544H105.561V31.0564H99.9861C99.3855 31.0564 98.7824 31.1328 98.7824 31.8828C98.7824 33.538 106.538 34.4408 106.538 39.2537C106.538 42.9016 103.829 44.8179 100.362 44.8179H93.623V40.3067Z" fill="white"/>
<path d="M120.048 44.8174H124.868V26.5425H120.048V44.8174Z" fill="white"/>
<path d="M140.161 31.3579H136.962C134.289 31.3579 132.594 33.1621 132.594 35.6819C132.594 38.2004 134.289 40.0072 136.962 40.0072H140.161V44.8188H136.809C131.162 44.8188 127.771 41.2843 127.771 35.6819C127.771 30.0783 131.162 26.5437 136.809 26.5437H140.161V31.3579Z" fill="white"/>
<path d="M40.784 30.985V37.7537C40.784 39.1084 41.4624 39.7833 42.4404 39.7833H44.2869V44.5962H41.7633C37.3194 44.5962 35.9639 41.9631 35.9639 37.9039V21.4342H40.784V30.985Z" fill="white"/>
<path d="M67.7517 47.0738C69.7104 47.8263 71.4038 48.1281 73.4759 48.1281C75.7725 48.1281 78.333 47.5628 78.333 44.2166V35.2694C78.333 32.2989 76.1869 30.9823 74.2296 30.9823C71.8552 30.9823 70.1248 32.7483 70.1248 35.3802C70.1248 38.0133 71.8552 39.629 74.2296 39.629C75.432 39.629 76.1869 39.4049 76.9036 39.177V44.1797C75.923 44.5171 74.8684 44.6674 74.2296 44.6674C68.6558 44.6674 65.3047 40.7954 65.3047 35.4553C65.3047 30.1165 68.6558 26.0942 74.2296 26.0942C79.0867 26.0942 83.1532 30.1165 83.1532 34.6289V43.4654C83.1532 49.7439 79.9525 52.9385 73.5894 52.9385C71.6321 52.9385 69.5969 52.6762 67.7517 52.0001V47.0738Z" fill="white"/>
<path d="M117.568 26.5437V31.2077H114.067V37.9751C114.067 39.3285 114.743 40.0059 115.722 40.0059H117.568V44.8188H115.044C110.601 44.8188 109.244 42.187 109.244 38.1266V21.3233H114.067V26.5437H117.568Z" fill="white"/>
</g>
<defs>
<clipPath id="clip0_482_2503">
<rect width="140" height="53" fill="white"/>
</clipPath>
</defs>
</svg>
