<svg width="159" height="79" viewBox="0 0 159 79" fill="none" xmlns="http://www.w3.org/2000/svg">
<g opacity="0.5">
<mask id="mask0_482_2537" style="mask-type:luminance" maskUnits="userSpaceOnUse" x="1" y="3" width="157" height="71">
<path d="M1.83301 3.56104H157.275V73.0666H1.83301V3.56104Z" fill="white"/>
</mask>
<g mask="url(#mask0_482_2537)">
<path d="M41.7694 50.0549C41.7371 50.1821 41.6091 50.2457 41.3859 50.2457H37.1169C36.8603 50.2457 36.6328 50.1345 36.4456 49.9116L29.3964 41.0008L27.4306 42.8592V49.77C27.4306 50.088 27.2703 50.2467 26.9508 50.2467H23.6419C23.3219 50.2467 23.1621 50.088 23.1621 49.77V18.2706C23.1621 17.9536 23.3219 17.7896 23.6419 17.7896H26.9513C27.2708 17.7896 27.4311 17.9488 27.4311 18.2706V37.6657L35.8712 29.1835C36.0949 28.9617 36.3187 28.85 36.5424 28.85H40.9551C41.1465 28.85 41.274 28.9302 41.3385 29.0879C41.4031 29.2787 41.3923 29.4214 41.2848 29.517L32.3697 38.0933L41.6731 49.5781C41.8006 49.7053 41.8323 49.8641 41.7694 50.0549ZM59.0589 50.2451H55.75C55.3982 50.2451 55.2229 50.0869 55.2229 49.7641V49.096C53.8158 50.1436 52.0097 50.6684 49.8039 50.6684C47.7902 50.6684 46.047 50.0485 44.5759 48.8106C43.1372 47.5402 42.418 45.9244 42.418 43.9501C42.418 40.8367 44.3678 38.724 48.2683 37.6122C49.8028 37.167 52.1205 36.7865 55.2218 36.4685C55.3186 35.2937 55.0066 34.2931 54.287 33.4663C53.5673 32.6395 52.5201 32.2274 51.1459 32.2274C49.3548 32.2274 47.5331 32.8688 45.6791 34.1333C45.3913 34.2926 45.1832 34.2605 45.0552 34.0382L43.334 31.6079C43.1737 31.4171 43.2221 31.1953 43.4776 30.9409C45.9394 29.2573 48.4969 28.415 51.1507 28.415C53.1967 28.415 54.9394 28.8917 56.3787 29.8447C58.4888 31.2429 59.5435 33.4823 59.5435 36.5631V49.763C59.5435 50.0811 59.3832 50.2441 59.0594 50.2441M55.2223 40.291C52.0888 40.6091 49.9475 41.0222 48.7965 41.53C47.2297 42.197 46.5257 43.1494 46.686 44.3894C46.7817 45.0885 47.134 45.6524 47.7412 46.081C48.3485 46.5097 49.052 46.7566 49.8513 46.8197C52.0888 46.9784 53.8852 46.3905 55.2223 45.0559V40.291ZM79.1372 58.513C77.3945 60.3072 74.9247 61.2057 71.7282 61.2057C69.8736 61.2057 68.1154 60.7449 66.4534 59.824C66.1011 59.6012 65.6859 59.3072 65.2066 58.9422C64.7274 58.5771 64.1669 58.1244 63.5285 57.5846C63.3042 57.3943 63.2886 57.1559 63.4747 56.8695L65.7337 54.6246C65.8295 54.5284 65.9575 54.4814 66.1172 54.4814C66.2447 54.4814 66.3571 54.5349 66.4528 54.6246C68.2428 56.4034 69.9855 57.2933 71.6798 57.2933C75.5524 57.2933 77.4822 55.2917 77.4822 51.289V48.8111C75.9794 50.0501 73.9818 50.6695 71.4878 50.6695C68.3865 50.6695 65.9564 49.5108 64.1987 47.1911C62.6642 45.1585 61.8966 42.5946 61.8966 39.5193C61.8966 36.5967 62.6319 34.1189 64.1029 32.09C65.8241 29.6443 68.2751 28.4208 71.4404 28.4208C73.8382 28.4208 75.8525 29.0408 77.4822 30.2797V29.3268C77.4822 29.0093 77.6419 28.85 77.962 28.85H81.2714C81.5904 28.85 81.7555 29.0093 81.7555 29.3268V50.6278C81.7555 54.0891 80.8842 56.7182 79.1415 58.513M77.4865 35.616C76.6872 33.5834 74.8327 32.5662 71.924 32.5662C68.1837 32.5662 66.3141 34.8859 66.3141 39.5235C66.3141 42.0965 66.938 43.972 68.1842 45.1462C69.1109 46.0682 70.3098 46.5284 71.7809 46.5284C74.7854 46.5284 76.6878 45.5118 77.4822 43.4787L77.4865 35.616ZM101.693 58.5183C99.9508 60.3126 97.4809 61.211 94.2844 61.211C92.4288 61.211 90.6711 60.7503 89.0091 59.8294C88.6568 59.6065 88.2415 59.3125 87.7623 58.9475C87.2831 58.5825 86.7232 58.1298 86.0842 57.5899C85.8604 57.3997 85.8443 57.1613 86.0304 56.8748L88.2894 54.63C88.3852 54.5338 88.5132 54.4868 88.6729 54.4868C88.8004 54.4868 88.9128 54.5402 89.0085 54.63C90.7985 56.4087 92.5407 57.2986 94.2355 57.2986C98.1081 57.2986 100.044 55.297 100.044 51.2943V48.8165C98.541 50.0554 96.5483 50.6749 94.0499 50.6749C90.9486 50.6749 88.5185 49.5161 86.7608 47.1965C85.2258 45.1639 84.4588 42.6 84.4588 39.5246C84.4588 36.6021 85.194 34.1242 86.664 32.0954C88.3852 29.6496 90.8362 28.4262 94.0015 28.4262C96.3993 28.4262 98.413 29.0462 100.044 30.2851V29.3321C100.044 29.0146 100.203 28.8554 100.524 28.8554H103.832C104.151 28.8554 104.317 29.0146 104.317 29.3321V50.6332C104.317 54.0944 103.445 56.7235 101.704 58.5183M100.049 35.6213C99.2494 33.5887 97.3948 32.5716 94.4861 32.5716C90.7453 32.5716 88.8751 34.8912 88.8751 39.5289C88.8751 42.1019 89.4991 43.9773 90.7453 45.1516C91.6726 46.0735 92.8714 46.5337 94.342 46.5337C97.3464 46.5337 99.2494 45.5172 100.043 43.484V35.6272L100.049 35.6213ZM111.654 50.2446H108.344C108.025 50.2446 107.86 50.0864 107.86 49.7636V18.2706C107.86 17.9536 108.02 17.7896 108.344 17.7896H111.654C111.972 17.7896 112.138 17.9483 112.138 18.2706V49.77C112.138 50.0875 111.977 50.251 111.654 50.251M135.773 40.577C135.773 40.895 135.611 41.0537 135.293 41.0537H119.707C119.899 42.6107 120.571 43.9132 121.722 44.9554C123.032 46.0682 124.679 46.623 126.661 46.623C128.419 46.623 129.996 46.1313 131.409 45.1457C131.697 44.9549 131.936 44.9549 132.128 45.1457L134.387 47.4333C134.643 47.6882 134.643 47.9143 134.387 48.1003C132.085 49.8106 129.415 50.6733 126.373 50.6733C123.112 50.6733 120.394 49.5936 118.22 47.4333C116.111 45.305 115.055 42.5888 115.055 39.2846C115.055 36.1713 116.094 33.5347 118.172 31.3744C120.091 29.4048 122.584 28.4203 125.649 28.4203C128.557 28.4203 131.003 29.4529 132.986 31.5176C135.032 33.6464 135.975 36.3151 135.815 39.5241L135.773 40.577ZM129.491 33.5721C128.404 32.5876 127.093 32.0948 125.564 32.0948C124.125 32.0948 122.862 32.5716 121.776 33.524C120.69 34.4765 120.001 35.7165 119.714 37.2413H131.271C131.239 35.7806 130.647 34.5566 129.496 33.5721" fill="white"/>
</g>
</g>
</svg>
