<svg width="126" height="53" viewBox="0 0 126 53" fill="none" xmlns="http://www.w3.org/2000/svg">
<g opacity="0.5" clip-path="url(#clip0_482_2542)">
<path fill-rule="evenodd" clip-rule="evenodd" d="M106.802 37.1839C114.286 37.1839 120.352 31.2905 120.352 24.0208C120.352 16.7511 114.286 10.8584 106.802 10.8584C99.3176 10.8584 93.2512 16.7511 93.2512 24.0208C93.2512 31.2905 99.3176 37.1839 106.802 37.1839ZM106.802 32.0888C111.067 32.0888 114.524 28.4762 114.524 24.0208C114.524 19.5654 111.067 15.9535 106.802 15.9535C102.537 15.9535 99.079 19.5654 99.079 24.0208C99.079 28.4762 102.537 32.0888 106.802 32.0888ZM13.9862 36.8999C20.9065 36.8999 26.5171 31.0718 26.5171 23.8831C26.5171 19.4378 24.3864 15.4924 21.098 13.165C16.5328 9.93391 10.1912 10.2366 5.68033 14.6209V1.47217C5.68033 0.977292 5.06796 0.318168 4.29554 0.199827C2.21836 -0.119335 0.144045 0.404235 0.144045 3.11532V20.4935C0.144045 22.4644 0.0204293 24.6613 0.419859 26.6092C1.62601 32.489 6.65425 36.8999 12.6743 36.8999C12.9158 36.8999 13.1559 36.8949 13.3945 36.8848C13.5903 36.8941 13.7875 36.8999 13.9862 36.8999ZM13.3302 31.9274C17.5553 31.9274 20.9801 28.3564 20.9801 23.9519C20.9801 19.5475 17.5553 15.9772 13.3302 15.9772C9.10513 15.9772 5.68033 19.5475 5.68033 23.9519C5.68033 28.3564 9.10513 31.9274 13.3302 31.9274ZM77.0596 36.8999C70.1393 36.8999 64.5287 31.0718 64.5287 23.8831C64.5287 19.4378 66.6587 15.4924 69.9471 13.165C74.5123 9.93391 80.8538 10.2366 85.3648 14.6209V1.47217C85.3648 0.977292 85.9771 0.318168 86.7495 0.199827C88.8267 -0.119335 90.9017 0.404235 90.9017 3.11532V20.4935C90.9017 22.4644 91.0247 24.6613 90.6252 26.6092C89.4191 32.489 84.3915 36.8999 78.3708 36.8999C78.1293 36.8999 77.8899 36.8949 77.6513 36.8848C77.4548 36.8941 77.2575 36.8999 77.0596 36.8999ZM77.7149 31.9274C73.4905 31.9274 70.065 28.3564 70.065 23.9519C70.065 19.5475 73.4905 15.9772 77.7149 15.9772C81.9399 15.9772 85.3648 19.5475 85.3648 23.9519C85.3648 28.3564 81.9399 31.9274 77.7149 31.9274ZM43.4918 10.8053L43.4332 15.7635L40.5236 15.9212C37.7462 16.0726 35.997 16.83 35.1359 18.6689C34.9995 18.9601 34.8916 19.2807 34.7922 19.6264C34.5207 20.576 34.4943 23.2024 34.4943 24.9037V36.4717H29.0966V23.7475C29.0966 22.5053 29.0788 21.3197 29.2552 20.079C30.3792 12.1616 37.6511 10.4238 43.4918 10.8053ZM47.5897 10.8053L47.6483 15.7635L50.5579 15.9212C53.3354 16.0726 55.0846 16.83 55.9456 18.6689C56.0828 18.9601 56.19 19.2807 56.2893 19.6264C56.3829 19.9527 56.4472 20.477 56.4915 21.0938C54.5958 20.6793 52.5887 20.3988 50.728 20.3508C46.8266 20.2518 43.1531 20.9719 40.8158 24.3507C38.0284 28.38 39.3982 34.4233 45.4975 36.1188C48.2299 36.8784 52.9924 37.0003 56.9502 36.4308L61.9849 35.8656V23.7475C61.9849 22.5053 62.0028 21.3197 61.8263 20.079C60.7023 12.1616 53.4304 10.4238 47.5897 10.8053ZM48.1935 32.1003C50.2328 32.5076 54.1714 32.527 56.5872 31.9346V25.362C53.9627 24.5917 49.6705 24.5551 48.1935 25.0184C46.0799 25.6812 44.7487 26.7319 44.7487 28.6418C44.7487 30.5518 45.8148 31.6247 48.1935 32.1003Z" fill="white"/>
<path fill-rule="evenodd" clip-rule="evenodd" d="M66.9287 49.8438V39.0397H68.1756V49.8438H66.9287ZM73.4003 50.1946C72.3257 50.1946 71.4582 49.813 70.8008 49.0513C70.1442 48.2896 69.8169 47.2848 69.8169 46.0369C69.8169 44.7796 70.1442 43.7719 70.8008 43.0152C71.4582 42.2585 72.3257 41.8799 73.4003 41.8799C74.4864 41.8799 75.3589 42.2585 76.0213 43.0174C76.6829 43.7769 77.0131 44.7846 77.0131 46.0369C77.0131 47.2848 76.6808 48.2896 76.0156 49.0513C75.351 49.813 74.4807 50.1946 73.4003 50.1946ZM73.4003 49.0857C74.0992 49.0857 74.6579 48.8111 75.0759 48.2588C75.4939 47.7087 75.704 46.9671 75.704 46.0369C75.704 45.0923 75.4961 44.3485 75.0809 43.8034C74.6651 43.2605 74.1042 42.9887 73.4003 42.9887C72.6836 42.9887 72.1256 43.2583 71.7176 43.8006C71.3124 44.3435 71.1102 45.0873 71.1102 46.0369C71.1102 46.9771 71.3153 47.7187 71.7254 48.266C72.1356 48.8132 72.6944 49.0857 73.4003 49.0857ZM79.3368 46.8079C78.9638 46.5733 78.7473 46.186 78.5536 45.8583C78.3578 45.5276 78.2606 45.1568 78.2606 44.7473C78.2606 43.9777 78.5593 43.3365 79.1588 42.8194C79.7583 42.3016 80.51 42.0419 81.4111 42.0419C81.7455 42.0419 82.0627 42.0771 82.3671 42.1452C82.6687 42.2134 82.9645 42.3217 83.2489 42.463C83.3232 42.019 83.514 41.6855 83.8205 41.4588C84.1185 41.2365 84.5222 41.1225 85.0317 41.1182V42.0147C84.7194 42.0305 84.47 42.1051 84.2821 42.2385C84.067 42.3876 83.9341 42.615 83.8791 42.9148C84.1385 43.2053 84.3321 43.5008 84.4565 43.7984C84.5808 44.0961 84.6415 44.4045 84.6415 44.72C84.6415 45.4925 84.3457 46.1157 83.7541 46.5848C83.1631 47.0575 82.3786 47.292 81.3946 47.292C81.1624 47.292 80.4029 47.2769 80.1928 47.2439C79.5868 47.4383 79.4011 48.2007 80.3578 48.2444L82.9502 48.3628C84.1585 48.418 85.7748 49.1862 85.7748 50.6995C85.7748 51.3988 85.4068 51.9417 84.6744 52.3226C83.9398 52.7034 82.8952 52.8956 81.5411 52.8956C80.2728 52.8956 79.2939 52.7185 78.6086 52.3677C77.9234 52.0149 77.5811 51.515 77.5811 50.8709C77.5811 50.2283 77.7526 49.085 78.9209 48.7135C78.1306 48.1182 78.157 47.1909 79.3368 46.8079ZM81.4604 43.0575C80.8916 43.0575 80.4329 43.2081 80.0813 43.5094C79.7305 43.8099 79.5568 44.2029 79.5568 44.6892C79.5568 45.1805 79.7305 45.5735 80.0792 45.8697C80.4271 46.166 80.8859 46.3137 81.4604 46.3137C82.0384 46.3137 82.5 46.166 82.848 45.8697C83.196 45.5735 83.3703 45.1805 83.3703 44.6892C83.3703 44.2029 83.196 43.8099 82.8452 43.5094C82.4943 43.2081 82.0327 43.0575 81.4604 43.0575ZM79.7333 49.3619C79.4211 49.5024 79.1946 49.661 79.0538 49.8388C78.913 50.016 78.8437 50.2333 78.8437 50.485C78.8437 50.9455 79.0817 51.2869 79.5597 51.5121C80.0377 51.7373 80.7587 51.8485 81.7262 51.8485C82.6322 51.8485 83.3203 51.7402 83.7905 51.5229C84.26 51.3055 84.495 50.9878 84.495 50.5697C84.495 50.2254 84.3457 49.9686 84.0499 49.8044C83.7541 49.6373 83.2596 49.5369 82.5686 49.5024L79.7333 49.3619ZM86.7023 49.912V42.189H87.9048V49.912H86.7023ZM86.653 40.6276L89.1081 37.8706L89.907 38.922L87.5726 40.6613L86.653 40.6276ZM90.3979 47.8177C90.7702 48.4603 91.2346 49.118 92.445 49.118C92.9517 49.118 93.3618 48.9954 93.6719 48.7472C93.9827 48.4998 94.1378 48.2789 94.1378 47.8801C94.1378 47.2999 93.5483 46.8631 92.3679 46.569C92.2028 46.5281 92.0742 46.4973 91.9849 46.4722C91.0803 46.242 90.4543 45.9608 90.1128 45.6288C89.7684 45.296 89.5962 44.8312 89.5962 44.233C89.5962 43.5431 89.8463 42.9779 90.3429 42.5354C90.8402 42.0936 91.4826 41.8741 92.2757 41.8741C92.9667 41.8741 93.5433 42.0448 94.0092 42.3876C94.3636 42.648 94.6365 42.9973 94.828 43.4362L93.8127 43.9168C93.514 43.4004 92.9645 42.9521 92.2321 42.9908C91.4768 43.031 90.8716 43.3143 90.8202 44.0975C90.7844 44.6454 91.2646 45.0492 92.3529 45.3117C92.6323 45.3792 92.8473 45.4344 93.0002 45.4753C93.8198 45.6897 94.4065 45.9737 94.7659 46.3288C95.1217 46.6845 95.3011 47.1493 95.3011 47.7295C95.3011 48.4481 95.0374 49.0384 94.5058 49.496C93.9749 49.9557 93.2889 50.186 92.445 50.186C91.6305 50.186 90.9495 49.9866 90.4036 49.5907C89.9699 49.2765 89.6533 48.8605 89.4533 48.3449L90.3979 47.8177ZM97.101 47.013V43.0554H95.8384V42.2227H97.101V40.4146L98.3036 40.2984V42.2227H100.204V43.0554H98.3036V47.0424C98.3036 47.8923 98.3993 48.4431 98.5915 48.6956C98.7866 48.9495 99.1396 49.0757 99.6591 49.0757C99.8248 49.0757 99.9756 49.0685 100.106 49.0513C100.238 49.0334 100.365 49.0112 100.487 48.9817V49.9306C100.316 49.9701 100.144 49.9995 99.9785 50.0217C99.8098 50.0439 99.6484 50.054 99.4904 50.054C99.0046 50.054 98.5944 49.9801 98.2621 49.8338C97.9292 49.6861 97.6512 49.4587 97.4283 49.1496C97.3111 48.9846 97.2282 48.7695 97.176 48.5048C97.1267 48.238 97.101 47.7417 97.101 47.013ZM101.934 49.8438V42.2227H103.121V49.8438H101.934ZM109.941 44.0918C109.63 43.3652 109.045 43.0181 108.246 43.0181C106.592 43.0181 105.951 44.5594 105.951 45.9902C105.951 47.411 106.479 48.999 108.127 48.999C109.063 48.999 109.756 48.4862 110.061 47.6212L111.172 47.8952C110.977 48.4991 110.664 48.9839 110.23 49.3518C109.676 49.8195 108.975 50.054 108.125 50.054C107.063 50.054 106.214 49.6839 105.571 48.9445C104.932 48.205 104.612 47.2203 104.612 45.9902C104.612 44.7659 104.95 43.7812 105.631 43.0389C106.311 42.2966 107.209 41.9272 108.321 41.9272C109.125 41.9272 109.789 42.1689 110.314 42.6516C110.644 42.9564 110.898 43.3365 111.075 43.7912L109.941 44.0918ZM117.453 46.115C117.34 46.1014 117.223 46.0921 117.098 46.0878C116.974 46.0835 116.792 46.0806 116.554 46.0806C115.526 46.0806 114.747 46.2162 114.218 46.4844C113.688 46.7526 113.424 47.1457 113.424 47.6664C113.424 48.0544 113.568 48.3606 113.856 48.5866C114.143 48.8139 114.532 48.9265 115.027 48.9265C115.698 48.9265 116.269 48.6877 116.744 48.21C117.216 47.7338 117.453 47.1543 117.453 46.4779V46.115ZM117.399 49.8897L117.361 48.8734C117.022 49.6057 116.259 49.9213 115.333 50.0024C114.453 50.0798 113.592 49.9844 112.9 49.3719C112.41 48.9402 112.166 48.3843 112.166 47.7094C112.166 46.8452 112.555 46.1954 113.331 45.7579C114.11 45.3211 115.261 45.103 116.786 45.103C116.969 45.103 117.103 45.103 117.196 45.1059C117.29 45.1081 117.373 45.1131 117.445 45.1181L117.453 44.639C117.453 44.0659 117.295 43.6385 116.978 43.3595C116.662 43.0798 116.177 42.9392 115.528 42.9392C114.761 42.9392 113.978 43.1163 113.601 43.8931L112.589 43.5072C112.786 43.1034 113.048 42.7032 113.438 42.4622C113.997 42.1151 114.75 41.9408 115.696 41.9408C116.685 41.9408 117.439 42.2585 117.892 42.7391C118.345 43.2196 118.571 43.982 118.571 45.0241V48.5514C118.571 49.07 118.606 49.4243 118.622 49.8603L117.399 49.8897ZM102.527 41.0278C103.02 41.0278 103.419 40.6276 103.419 40.1327C103.419 39.6385 103.02 39.2376 102.527 39.2376C102.035 39.2376 101.635 39.6385 101.635 40.1327C101.635 40.6276 102.035 41.0278 102.527 41.0278Z" fill="white"/>
<path fill-rule="evenodd" clip-rule="evenodd" d="M115.811 6.37305C120.352 8.61722 123.942 12.5074 125.704 17.3013L121.221 18.6454C119.836 15.1002 117.125 12.2334 113.724 10.563L115.811 6.37305ZM119.41 19.1876C118.184 16.1717 115.843 13.7016 112.881 12.255L110.538 16.9592C112.031 17.8234 113.221 19.1897 113.9 20.8393L119.41 19.1876Z" fill="white"/>
</g>
<defs>
<clipPath id="clip0_482_2542">
<rect width="126" height="53" fill="white"/>
</clipPath>
</defs>
</svg>
