<svg width="42" height="33" viewBox="0 0 42 33" fill="none" xmlns="http://www.w3.org/2000/svg">
<g clip-path="url(#clip0_517_1539)">
<path d="M37.8034 0.012207C38.5016 1.04905 39.1895 2.07376 39.9055 3.13788C36.5383 5.07362 33.6436 7.47472 31.7777 10.9869C30.8359 12.7605 30.1819 14.9312 30.0491 16.6668C32.2176 15.5891 34.4215 15.7209 36.5959 16.5152C41.4038 18.2721 43.3494 23.8732 41.0111 28.5753C38.2758 34.0794 31.8899 33.7868 28.5567 31.2659C26.1092 29.4151 24.6434 26.8503 24.0381 23.8231C22.8306 17.7885 24.3585 12.4225 28.0385 7.65663C30.5953 4.34753 33.8266 1.9146 37.5259 0.116801C37.6071 0.0789043 37.6942 0.0531349 37.8034 0.012207Z" fill="black"/>
<path d="M14.2095 0C14.9122 1.0429 15.6016 2.0661 16.3219 3.13629C11.0756 6.13615 7.28776 10.2426 6.43896 16.6319C9.62897 15.3404 12.5857 15.7603 15.2591 17.7885C18.7591 20.4442 19.4056 25.3814 16.9773 29.3377C14.9122 32.7014 10.9634 33.6063 7.59037 32.574C4.44318 31.6115 2.50644 29.2998 1.26351 26.35C-0.422278 22.3481 -0.326327 18.2266 0.983036 14.1413C2.48873 9.4407 5.45436 5.84359 9.28059 2.94529C10.8084 1.79022 12.4396 0.81401 14.2095 0Z" fill="black"/>
</g>
<defs>
<clipPath id="clip0_517_1539">
<rect width="42" height="33" fill="white"/>
</clipPath>
</defs>
</svg>
