<svg width="64" height="65" viewBox="0 0 64 65" fill="none" xmlns="http://www.w3.org/2000/svg">
<g filter="url(#filter0_i_531_125)">
<rect width="64" height="64" transform="translate(0 0.625)" fill="white" fill-opacity="0.1"/>
<path d="M28.4876 38.2027C28.4682 38.2695 28.4573 38.32 28.4396 38.368C28.3521 38.6027 28.0454 38.7125 27.8573 38.5463C27.2977 38.0527 26.8198 37.497 26.6397 36.7487C26.5598 36.4154 26.6136 36.3236 26.938 36.2096C27.4934 36.0137 28.0631 36.04 28.6344 36.1098C28.7333 36.1219 28.8313 36.1402 28.9293 36.1574C29.2781 36.2187 29.4031 36.5294 29.1923 36.8088C29.1746 36.8326 29.1595 36.8585 29.13 36.9032C29.1889 36.9186 29.2306 36.9366 29.2731 36.9395C30.6585 37.0238 31.8092 36.542 32.7285 35.516C32.9309 35.2901 32.9187 35.2074 32.7138 34.9806C31.3182 33.4377 29.9227 31.8947 28.5267 30.3518C28.3033 30.105 28.201 30.1037 27.9629 30.3422C27.5489 30.7568 27.14 31.1761 26.7205 31.5849C26.2081 32.0847 25.3801 31.863 25.2156 31.1823C25.1377 30.86 25.2269 30.5752 25.4642 30.338C25.8971 29.9054 26.3288 29.4719 26.7605 29.0385C26.9595 28.8389 26.9599 28.7353 26.7643 28.5395C26.7197 28.4952 26.67 28.4547 26.6317 28.4063C26.4887 28.2255 26.3229 28.1795 26.0827 28.2121C24.6783 28.4 23.645 27.1181 24.1149 25.7893C24.38 25.0398 25.086 24.5775 25.8862 24.6289C26.7521 24.6848 27.4147 25.2026 27.5695 25.9906C27.6225 26.2599 27.5914 26.5485 27.5767 26.827C27.57 26.9519 27.5838 27.0517 27.6735 27.1389C27.7673 27.23 27.8582 27.3243 27.9524 27.4145C28.1064 27.5619 28.2343 27.5624 28.3874 27.4104C28.8363 26.9644 29.2781 26.5109 29.7329 26.0708C30.213 25.6064 30.9989 25.7977 31.2 26.4224C31.3127 26.7731 31.2219 27.0805 30.9644 27.3394C30.5369 27.7699 30.1065 28.1975 29.6782 28.6272C29.4893 28.8163 29.4927 28.9333 29.6892 29.1112C31.253 30.5251 32.8168 31.939 34.3807 33.3529C34.5852 33.5375 34.6668 33.54 34.8772 33.3571C35.9323 32.4397 36.3968 31.2792 36.3156 29.8962C36.3131 29.857 36.3009 29.8181 36.2874 29.7496C36.2277 29.7881 36.1869 29.8144 36.1465 29.8407C35.9176 29.9881 35.6105 29.8908 35.5554 29.6256C35.4119 28.9366 35.3534 28.2434 35.5869 27.5586C35.6993 27.2287 35.7939 27.1803 36.1414 27.2609C36.5916 27.3653 36.9741 27.5995 37.3228 27.8897C37.5033 28.0401 37.6733 28.2042 37.8374 28.3725C38.1138 28.6556 38.0292 28.9642 37.6489 29.0853C37.6295 29.0915 37.6115 29.1007 37.5879 29.1107C37.5908 29.1345 37.5892 29.1554 37.5963 29.1734C38.0011 30.1948 37.9947 31.237 37.7566 32.291C37.5513 33.2001 37.2017 34.0574 36.8011 34.8954C36.5983 35.3197 36.4789 35.7619 36.4498 36.2304C36.4225 36.6727 36.1389 36.9913 35.6976 37.0372C35.0989 37.0998 34.5465 37.2882 34.0067 37.5433C33.1383 37.9534 32.2417 38.2891 31.2879 38.4515C30.3766 38.6065 29.4801 38.5726 28.6092 38.234C28.5759 38.221 28.5397 38.2156 28.4876 38.2027ZM25.7579 27.1561C26.1681 27.159 26.5316 26.8036 26.5388 26.3927C26.5459 25.9839 26.198 25.6373 25.7802 25.6365C25.3616 25.6357 25.0166 25.9722 25.0115 26.386C25.0056 26.8007 25.3481 27.1536 25.7579 27.1561Z" fill="#003751"/>
<path d="M25.7784 26.7841C25.5513 26.7874 25.3813 26.6204 25.3809 26.3945C25.3809 26.1719 25.555 25.9936 25.7726 25.994C25.9867 25.9944 26.1685 26.1798 26.1664 26.3961C26.1643 26.6112 25.9947 26.7812 25.7784 26.7841Z" fill="#003751"/>
</g>
<defs>
<filter id="filter0_i_531_125" x="0" y="0.625" width="64" height="64" filterUnits="userSpaceOnUse" color-interpolation-filters="sRGB">
<feFlood flood-opacity="0" result="BackgroundImageFix"/>
<feBlend mode="normal" in="SourceGraphic" in2="BackgroundImageFix" result="shape"/>
<feColorMatrix in="SourceAlpha" type="matrix" values="0 0 0 0 0 0 0 0 0 0 0 0 0 0 0 0 0 0 127 0" result="hardAlpha"/>
<feMorphology radius="1" operator="erode" in="SourceAlpha" result="effect1_innerShadow_531_125"/>
<feOffset/>
<feComposite in2="hardAlpha" operator="arithmetic" k2="-1" k3="1"/>
<feColorMatrix type="matrix" values="0 0 0 0 0 0 0 0 0 0.215686 0 0 0 0 0.317647 0 0 0 0.3 0"/>
<feBlend mode="normal" in2="shape" result="effect1_innerShadow_531_125"/>
</filter>
</defs>
</svg>
