<svg width="25" height="25" viewBox="0 0 25 25" fill="none" xmlns="http://www.w3.org/2000/svg">
<g clip-path="url(#clip0_489_75)">
<path d="M17.9823 8.22563C17.9226 8.28445 17.8629 8.34327 17.8032 8.40209C14.0943 12.0568 10.3855 15.7116 6.67575 19.3656C6.57922 19.4607 6.48235 19.5615 6.36819 19.6318C5.99181 19.8635 5.46304 19.7633 5.18844 19.4207C4.88871 19.0466 4.89401 18.552 5.20327 18.2113C5.26573 18.1425 5.33324 18.078 5.39954 18.0127C9.09816 14.368 12.797 10.7232 16.4957 7.07859C16.5556 7.01951 16.6156 6.96044 16.7166 6.86086C16.5857 6.85383 16.5049 6.84692 16.4241 6.84559C14.2555 6.80903 12.0869 6.77169 9.9183 6.73862C9.63194 6.73424 9.3728 6.67286 9.16501 6.45973C8.90193 6.1898 8.81894 5.86956 8.93077 5.5192C9.04529 5.16026 9.30412 4.95074 9.68003 4.89531C9.76487 4.88286 9.85296 4.88693 9.93948 4.88836C12.896 4.93704 15.8526 4.98625 18.8091 5.0358C19.5194 5.04769 19.8769 5.4098 19.8783 6.11894C19.8843 9.09757 19.8887 12.0762 19.8969 15.0548C19.898 15.4459 19.7737 15.761 19.4207 15.9537C18.8462 16.2672 18.1242 15.8822 18.0536 15.2251C18.0444 15.139 18.0467 15.0517 18.0466 14.965C18.0421 12.8037 18.0377 10.6425 18.0353 8.4813C18.0351 8.40278 18.0548 8.32458 18.0653 8.24624C18.0374 8.23934 18.0098 8.23253 17.9823 8.22563Z" fill="white"/>
</g>
<defs>
<clipPath id="clip0_489_75">
<rect width="20.1763" height="14.9454" fill="white" transform="translate(0 14.1616) rotate(-44.5782)"/>
</clipPath>
</defs>
</svg>
