<svg width="77" height="221" fill="none" xmlns="http://www.w3.org/2000/svg"><path d="M27.077 87.751l.457.89-.457-.89zm-11.176 40.047l-.875.484.875-.484zm51.224-29.802l-.853-.522.852.522zM15.9 3l7.765 8.546L27.186.55 15.9 3zM1.787 220.617c.548-.699 1.091-1.395 1.63-2.087l-1.577-1.229a783.09 783.09 0 01-1.627 2.082l1.574 1.234zm4.816-6.199a821.77 821.77 0 003.085-4.032l-1.592-1.21a863.605 863.605 0 01-3.078 4.022l1.585 1.22zm6.154-8.094a769.653 769.653 0 003.117-4.183l-1.608-1.19a765.49 765.49 0 01-3.109 4.173l1.6 1.2zm6.122-8.275a696.966 696.966 0 002.997-4.144l-1.625-1.166a688.344 688.344 0 01-2.988 4.132l1.616 1.178zm6.01-8.381a575.236 575.236 0 002.885-4.133l-1.645-1.138a564.997 564.997 0 01-2.876 4.119l1.635 1.152zm5.822-8.422c.977-1.441 1.93-2.862 2.859-4.264l-1.667-1.105a482.246 482.246 0 01-2.847 4.247l1.655 1.122zm5.64-8.509a420.712 420.712 0 002.805-4.392l-1.693-1.066a415.105 415.105 0 01-2.791 4.371l1.68 1.087zm5.447-8.647a350.91 350.91 0 002.713-4.51l-1.721-1.018a350.35 350.35 0 01-2.698 4.484l1.706 1.044zm5.24-8.86c.888-1.558 1.74-3.085 2.556-4.582l-1.756-.957a282.233 282.233 0 01-2.538 4.549l1.737.99zm4.926-9.032a220.803 220.803 0 002.36-4.675l-1.797-.879a217.274 217.274 0 01-2.337 4.632l1.774.922zm4.55-9.308a162.49 162.49 0 002.052-4.686l-1.845-.772a159.127 159.127 0 01-2.026 4.628l1.82.83zm3.975-9.536c.63-1.684 1.195-3.309 1.7-4.878l-1.904-.613a109.764 109.764 0 01-1.669 4.791l1.873.7zm3.142-9.828c.458-1.766.83-3.452 1.122-5.061l-1.968-.356a67.881 67.881 0 01-1.09 4.915l1.936.502zm1.81-10.243c.15-1.877.173-3.63.079-5.266l-1.997.116a36.328 36.328 0 01-.075 4.99l1.993.16zm-.704-10.478c-.48-1.872-1.156-3.537-2.002-5.008l-1.734.997c.75 1.303 1.36 2.799 1.8 4.508l1.936-.497zm-5.41-9.212a17.758 17.758 0 00-4.549-2.914l-.819 1.824A15.759 15.759 0 0158 89.09l1.328-1.496zm-9.666-4.48a29.673 29.673 0 00-5.28-.475l-.008 2a27.67 27.67 0 014.924.44l.364-1.966zm-10.534-.11a41.769 41.769 0 00-5.14 1.054l.522 1.93a39.802 39.802 0 014.895-1.003l-.277-1.98zm-10.115 2.75c-.836.35-1.636.72-2.391 1.108l.913 1.78a31.855 31.855 0 012.25-1.043l-.771-1.845zm-2.391 1.108a60.46 60.46 0 00-2.176 1.172l.985 1.74a58.92 58.92 0 012.104-1.132l-.913-1.78zm-6.369 3.822a35.987 35.987 0 00-3.862 3.142l1.372 1.456a33.979 33.979 0 013.648-2.967l-1.158-1.63zm-7.2 6.909a21.202 21.202 0 00-2.482 4.432l1.851.755a19.219 19.219 0 012.25-4.014l-1.62-1.173zm-3.78 9.358a22.275 22.275 0 00-.057 5.068l1.99-.197a20.273 20.273 0 01.05-4.614l-1.984-.257zm.885 9.995a41.228 41.228 0 001.631 4.696l1.849-.763a39.194 39.194 0 01-1.553-4.467l-1.927.534zm3.711 9.168c.373.725.76 1.448 1.158 2.169l1.75-.968c-.39-.705-.767-1.41-1.128-2.114l-1.78.913zm1.158 2.169a18.79 18.79 0 001.425 2.212l1.597-1.203a16.784 16.784 0 01-1.272-1.977l-1.75.968zm5.377 5.772c1.617.913 3.362 1.365 5.187 1.43l.07-1.999c-1.53-.054-2.958-.43-4.273-1.173l-.984 1.742zm10.395.68c1.556-.471 3.14-1.147 4.734-1.988l-.934-1.769c-1.504.794-2.968 1.416-4.379 1.843l.58 1.914zm9.066-4.646a60.444 60.444 0 004.006-3.05l-1.273-1.542a58.427 58.427 0 01-3.873 2.949l1.14 1.643zm7.768-6.37a99.837 99.837 0 003.562-3.518l-1.44-1.388a97.536 97.536 0 01-3.49 3.447l1.368 1.459zm6.951-7.191a131.359 131.359 0 003.236-3.803l-1.547-1.267a129.314 129.314 0 01-3.186 3.745l1.497 1.325zm6.328-7.724a135.453 135.453 0 002.947-4.031l-1.636-1.15a134 134 0 01-2.904 3.971l1.593 1.21zm5.738-8.172c.461-.715.904-1.42 1.328-2.113l-1.705-1.044c-.416.679-.851 1.371-1.304 2.074l1.681 1.083zm1.328-2.113c.433-.708.85-1.418 1.25-2.131l-1.745-.978a62.51 62.51 0 01-1.21 2.065l1.705 1.044zm3.482-6.509a58.67 58.67 0 001.871-4.555l-1.88-.681a56.673 56.673 0 01-1.808 4.4l1.817.836zm3.346-9.26c.426-1.6.776-3.205 1.051-4.813l-1.971-.337a52.57 52.57 0 01-1.012 4.637l1.932.514zm1.66-9.707a53.46 53.46 0 00.153-4.93l-2 .03a51.206 51.206 0 01-.148 4.745l1.994.155zm-.15-9.853a54.364 54.364 0 00-.752-4.871l-1.96.393c.312 1.557.554 3.122.723 4.693l1.989-.215zm-1.935-9.656a57.825 57.825 0 00-1.594-4.661l-1.863.726a55.803 55.803 0 011.538 4.5l1.919-.565zm-3.567-9.167a63.086 63.086 0 00-2.327-4.334l-1.724 1.013a61.12 61.12 0 012.253 4.197l1.798-.876zm-4.976-8.478a69.849 69.849 0 00-2.933-3.932l-1.56 1.25a67.901 67.901 0 012.849 3.82l1.644-1.138zm-6.129-7.655a77.651 77.651 0 00-3.43-3.507l-1.386 1.442a75.654 75.654 0 013.343 3.418l1.473-1.353zm-7.07-6.797a86.137 86.137 0 00-3.817-3.065l-1.208 1.595a84.17 84.17 0 013.728 2.993l1.297-1.523zm-7.795-5.911a95.234 95.234 0 00-4.12-2.633l-1.034 1.712a93.217 93.217 0 014.034 2.578l1.12-1.657zm-8.367-5.056a104.794 104.794 0 00-4.356-2.216l-.865 1.803c1.457.7 2.882 1.425 4.272 2.174l.949-1.76zm-8.807-4.23a114.623 114.623 0 00-4.532-1.819l-.705 1.872a111.63 111.63 0 014.453 1.786l.784-1.84z" fill="#E34D00"/></svg>