<svg width="169" height="42" viewBox="0 0 169 42" fill="none" xmlns="http://www.w3.org/2000/svg">
<path fill-rule="evenodd" clip-rule="evenodd" d="M45.0569 16.9349H52.8135V22.0659H45.0569V16.9349Z" fill="#C32022"/>
<path fill-rule="evenodd" clip-rule="evenodd" d="M67.6942 1.40233H99.4486V7.07597H67.6942V1.40233ZM70.4211 9.37673H99.4486V14.5076H75.3955V22.0625H67.6942V12.107C67.6942 10.5987 68.9162 9.37673 70.4211 9.37673Z" fill="#C32022"/>
<path fill-rule="evenodd" clip-rule="evenodd" d="M101.803 1.40233H132.891V7.07597H101.803V1.40233ZM104.53 9.37673H132.891V14.5076H109.504V16.9349H132.891V22.0659H104.799C103.144 22.0659 101.803 20.7242 101.803 19.0692V12.107C101.803 10.5987 103.025 9.37673 104.53 9.37673Z" fill="#C32022"/>
<path d="M43.2483 1.40233L31.1285 22.0625H40.3914L48.9352 6.52992L57.479 22.0625H66.7419L55.1648 1.40233H43.2483Z" fill="#C32022"/>
<path fill-rule="evenodd" clip-rule="evenodd" d="M25.4715 13.895C25.4715 15.5731 24.113 16.9316 22.4349 16.9316H10.7379C9.05982 16.9316 7.70134 15.5731 7.70134 13.895V9.02381C7.70134 7.34569 9.05982 5.98721 10.7379 5.98721H22.4349C24.113 5.98721 25.4715 7.34569 25.4715 9.02381H33.1262C32.6534 4.43894 28.7744 0.859619 24.063 0.859619H9.1098C4.07877 0.859619 0 4.93839 0 9.96942V12.9527C0 17.9838 4.07877 22.0625 9.1098 22.0625H24.063C28.7778 22.0625 32.6534 18.4832 33.1262 13.895H25.4715Z" fill="#C32022"/>
<path fill-rule="evenodd" clip-rule="evenodd" d="M135.246 1.40234H167V7.07598H135.246V1.40234ZM137.973 9.37674H167V14.5077H142.947V22.0625H135.246V12.107C135.246 10.5987 136.464 9.37674 137.973 9.37674Z" fill="#344971"/>
</svg>
